<?xml version="1.0" encoding="utf-8"?>
<svg viewBox="23.979 55.95 460.923 175.844" xmlns="http://www.w3.org/2000/svg">
  <defs>
    <path id="path-0" d="M 408.526 116.341 C 410.302 121.91 414.016 128.936 415.631 130.551 C 419.786 135.595 421.042 142.179 424.512 145.648 C 428.076 150.101 428.964 154.541 432.504 158.082 C 433.393 161.925 438.721 166.126 438.721 169.627 C 443.302 173.319 443.051 178.453 446.714 180.284 C 450.354 184.813 451.627 186.973 454.707 190.053" style="fill: none;"/>
    <path id="path-1" d="M 414.7424339423347 122.55772137910532 L 430.56971536164036 165.2913812112304" style="fill: none;"/>
  </defs>
  <text style="fill: rgb(51, 51, 51); font-family: Arial, sans-serif; font-size: 33px; font-weight: 700; white-space: pre;" x="30.196" y="109.236">csmp.missouriwestern.edu</text>
  <text style="fill: rgb(51, 51, 51); font-family: Arial, sans-serif; font-size: 24.9px; stroke: rgb(111, 218, 85); white-space: pre; transform-box: fill-box; transform-origin: 50% 50%;" y="158.082" x="31.083" transform="matrix(0.777146, 0.62932, -0.62932, 0.777146, 378.330418, -3.552427)">TLD</text>
  <text style="white-space: pre; fill: rgb(51, 51, 51); font-family: Arial, sans-serif; font-size: 24.9px;" x="526.643" y="39.076">Enter your text here</text>
  <text style="fill: rgb(51, 51, 51); font-family: Arial, sans-serif; font-size: 24.9px; stroke: rgb(111, 218, 85); white-space: pre;" y="158.082" x="31.083" transform="matrix(0.777146, 0.62932, -0.62932, 0.777146, 313.267456, -1.005642)">SLD</text>
  <text style="fill: rgb(51, 51, 51); font-family: Arial, sans-serif; font-size: 24.9px; stroke: rgb(111, 218, 85); white-space: pre;" y="158.082" x="31.083" transform="matrix(0.777146, 0.62932, -0.62932, 0.777146, 313.267456, -1.005642)">SLD</text>
  <text style="fill: rgb(51, 51, 51); font-family: Arial, sans-serif; font-size: 24.9px; stroke: rgb(111, 218, 85); white-space: pre; transform-origin: -89.227px 268.953px;" y="158.082" x="31.083" transform="matrix(0.777146, 0.62932, -0.62932, 0.777146, -8.463757, -122.416604)">Subdomain</text>
</svg>